<svg width="24" height="24" viewBox="0 0 24 24" fill="none" xmlns="http://www.w3.org/2000/svg">
<path d="M24 22.7857L22.7857 24L16.9286 18.1429C15.0238 19.7619 12.8095 20.5714 10.2857 20.5714C7.44444 20.5714 5.01984 19.5675 3.0119 17.5595C1.00397 15.5516 0 13.127 0 10.2857C0 7.44444 1.00397 5.01984 3.0119 3.0119C5.01984 1.00397 7.44444 0 10.2857 0C13.127 0 15.5516 1.00397 17.5595 3.0119C19.5675 5.01984 20.5714 7.44444 20.5714 10.2857C20.5714 12.8095 19.7619 15.0238 18.1429 16.9286L24 22.7857ZM4.22619 16.3452C4.22619 16.3452 4.64484 16.7639 5.48214 17.6012C6.31944 18.4385 7.92064 18.8571 10.2857 18.8571C12.6508 18.8571 14.6706 18.0198 16.3452 16.3452C18.0198 14.6706 18.8571 12.6508 18.8571 10.2857C18.8571 7.92064 18.0198 5.90079 16.3452 4.22619C14.6706 2.55159 12.6508 1.71428 10.2857 1.71428C7.92064 1.71428 5.90079 2.55159 4.22619 4.22619C2.55159 5.90079 1.71429 7.92064 1.71429 10.2857C1.71429 12.6508 2.55159 14.6706 4.22619 16.3452Z" fill="#171717"/>
</svg>
